<svg width="724" height="232" version="1.1" viewBox="0 0 724 232" xmlns="http://www.w3.org/2000/svg"><g><rect width="724" height="232" fill="#fefeff" style="paint-order:fill markers stroke"/><g transform="translate(-1.9265 -.001811)"><rect x="13.25" y="16.25" width="46" height="46" fill="#d8dbe2" style="paint-order:markers stroke fill"/><rect x="13.25" y="68.35" width="46" height="46" fill="#7e87a1" style="paint-order:markers stroke fill"/><rect x="13.25" y="120.45" width="46" height="46" fill="#404d73" style="paint-order:markers stroke fill"/><rect x="13.25" y="172.55" width="46" height="46" fill="#011244" style="paint-order:markers stroke fill"/><rect x="65.35" y="68.35" width="46" height="46" fill="#bec3d0" style="paint-order:markers stroke fill"/><rect x="65.35" y="120.45" width="46" height="46" fill="#7e87a1" style="paint-order:markers stroke fill"/><rect x="65.35" y="172.55" width="46" height="46" fill="#404d73" style="paint-order:markers stroke fill"/><rect x="117.45" y="120.45" width="46" height="46" fill="#bec3d0" style="paint-order:markers stroke fill"/><rect x="117.45" y="172.55" width="46" height="46" fill="#7e87a1" style="paint-order:markers stroke fill"/><rect x="169.55" y="172.55" width="46" height="46" fill="#bec3d0" style="paint-order:markers stroke fill"/><rect x="221.65" y="172.55" width="46" height="46" fill="#d8dbe2" style="paint-order:markers stroke fill"/><rect x="273.75" y="172.55" width="46" height="46" fill="#f2f3f5" style="paint-order:markers stroke fill"/></g><g transform="scale(.9383 1.0658)" fill="#000d41" stroke-linejoin="round" stroke-width="4.255" aria-label="Open Extended Firmware Platform "><path d="m262.91 182.43q0 1.6665-0.35394 3.1412-0.35394 1.46-1.0618 2.802-1.4158 2.6398-4.0703 4.026-2.6398 1.3862-5.6335 1.3862-3.2887 0-5.8547-1.4895-2.5513-1.5042-3.9376-4.1588-1.3125-2.5365-1.3125-5.4565 0-2.6988 0.78161-4.8224 0.78161-2.1384 2.3153-3.6868 3.0822-3.1264 8.0226-3.1264 1.6222 0 3.0527 0.35394 1.4305 0.35393 2.7283 1.106 2.5513 1.4157 3.967 4.085 0.66363 1.2683 1.0028 2.7578 0.35394 1.4895 0.35394 3.0822zm-4.498 0q0-1.1945-0.20646-2.1826-0.20647-0.98807-0.63414-1.9024-0.76686-1.637-2.3153-2.5513-1.5337-0.92908-3.4361-0.92908-2.743 0-4.6897 1.7697t-1.9466 6.0907q0 3.4214 1.8729 5.3386 1.8877 1.9172 4.7192 1.9172 2.8757 0 4.7486-1.9319 1.8877-1.9319 1.8877-5.6188zm22.932 2.979q0 2.4923-0.95858 4.4684-0.94383 1.9614-2.802 3.0674-1.8434 1.1061-3.8491 1.1061-1.5337 0-2.7578-0.63414-0.13273-0.059-0.29495-0.14747-0.059-0.0295-0.2802-0.16223v6.3119h-4.203v-22.047h3.967v0.79636q0.35394-0.26546 0.76687-0.47192 1.1945-0.66363 2.979-0.66363 2.2711 0 3.9818 1.0913 1.7107 1.0913 2.6103 3.097 0.39818 0.94383 0.61939 2.0056t0.22121 2.1826zm-4.262 0q0-1.2978-0.26545-2.2268-0.25071-0.92909-0.81111-1.5632-0.97333-1.1503-2.3448-1.1503-1.3125 0-2.3891 1.2388-1.1208 1.3125-1.1208 3.908 0 1.2978 0.23595 2.2416 0.25071 0.92909 0.79636 1.5337 0.98808 1.1208 2.3891 1.1208t2.4038-1.165q0.5604-0.61939 0.82585-1.5927 0.2802-0.98807 0.2802-2.3448zm23.301 2.2711q-0.54565 1.8287-1.224 2.9052-0.67838 1.0618-1.7107 1.7992-0.97332 0.67838-2.2121 1.0323-1.224 0.35394-2.743 0.35394-1.9024 0-3.3919-0.54566-1.4895-0.54565-2.6103-1.6517t-1.6812-2.5955q-0.54565-1.5042-0.54565-3.4656 0-3.9523 2.2416-6.2086 2.2564-2.2711 5.84-2.2711 3.4951 0 5.6925 2.2121 2.2121 2.2121 2.2121 6.1202l-0.059 1.401h-11.562q0.23596 1.5485 1.165 2.4481 1.106 1.0766 2.7135 1.0766 1.2093 0 2.0351-0.5899 0.44242-0.30969 0.79636-0.85534 0.35394-0.5604 0.78161-1.6517zm-4.6012-4.4095q-0.22121-1.0323-0.72262-1.5927-1.0323-1.165-2.684-1.165-0.78161 0-1.401 0.22121-0.60464 0.22121-1.1356 0.72262-0.78161 0.69312-1.0323 1.8139zm21.664 10.146h-4.203v-9.6153q0-1.3125-0.26545-2.0056-0.10323-0.25071-0.30969-0.44242-0.19172-0.20647-0.48667-0.38344-0.60464-0.35393-1.4305-0.35393-1.4158 0-2.4333 0.82585-0.48667 0.39818-0.72263 1.224-0.22121 0.82585-0.22121 2.0499v8.701h-4.203v-16.06h3.9375v0.94383q1.7254-1.2683 4.203-1.2683 0.89959 0 1.5632 0.11798 0.66363 0.10323 1.342 0.39818 1.401 0.54565 2.1089 1.5042 0.66364 0.88484 0.94383 2.0941 0.16223 0.73737 0.16223 2.5513zm30.143 0h-17.682v-21.988h17.181v3.8933h-12.771v4.8076h11.96v3.8786h-11.96v5.5155h13.273zm19.629 0h-5.1468l-3.4656-4.8666-0.22121-0.3097-3.7016 5.1763h-5.1026l6.2676-8.3175-5.8252-7.7129h5.2058l2.625 3.7311 0.48666 0.70787 0.53091-0.70787 2.8757-3.7311h5.0878l-5.9874 7.5802zm10.928-0.16222q-1.1798 0.20646-1.7697 0.2802-0.5899 0.0737-1.1208 0.0737-1.6517 0-2.625-0.50141-1.0176-0.5604-1.46-1.4747-0.16222-0.36869-0.26546-1.1798-0.10323-0.82585-0.10323-2.0204v-7.6539h-1.9466v-3.3624h1.9466v-3.3034l4.1882-2.3448v5.6482h2.6693v3.3624h-2.6693v7.8014q0 0.33919 0 0.64889 0.0148 0.29495 0.059 0.41292 0.059 0.10324 0.16222 0.16223 0.22121 0.0737 0.53091 0.0737 0.44242 0 0.78161-0.0442 0.58989-0.11798 1.0176-0.17697zm18.552-5.5745q-0.54565 1.8287-1.224 2.9052-0.67838 1.0618-1.7107 1.7992-0.97332 0.67838-2.2121 1.0323-1.224 0.35394-2.743 0.35394-1.9024 0-3.3919-0.54566-1.4895-0.54565-2.6103-1.6517t-1.6812-2.5955q-0.54565-1.5042-0.54565-3.4656 0-3.9523 2.2416-6.2086 2.2564-2.2711 5.84-2.2711 3.4951 0 5.6925 2.2121 2.2121 2.2121 2.2121 6.1202l-0.059 1.401h-11.562q0.23596 1.5485 1.165 2.4481 1.106 1.0766 2.7135 1.0766 1.2093 0 2.0351-0.5899 0.44242-0.30969 0.79636-0.85534 0.35394-0.5604 0.78161-1.6517zm-4.6012-4.4095q-0.22121-1.0323-0.72262-1.5927-1.0323-1.165-2.684-1.165-0.78161 0-1.401 0.22121-0.60464 0.22121-1.1356 0.72262-0.78161 0.69312-1.0323 1.8139zm21.664 10.146h-4.203v-9.6153q0-1.3125-0.26545-2.0056-0.10323-0.25071-0.3097-0.44242-0.19171-0.20647-0.48666-0.38344-0.60464-0.35393-1.4305-0.35393-1.4158 0-2.4333 0.82585-0.48666 0.39818-0.72262 1.224-0.22121 0.82585-0.22121 2.0499v8.701h-4.203v-16.06h3.9376v0.94383q1.7254-1.2683 4.203-1.2683 0.89958 0 1.5632 0.11798 0.66363 0.10323 1.342 0.39818 1.401 0.54565 2.1089 1.5042 0.66363 0.88484 0.94383 2.0941 0.16222 0.73737 0.16222 2.5513zm18.051 0.0147h-4.0113v-0.73737q-1.519 1.0766-3.6131 1.0766-2.0941 0-3.8786-1.1208-1.7107-1.0323-2.6988-3.0232-0.92908-1.9024-0.92908-4.3652 0-2.4186 0.8406-4.3652 0.85534-1.9614 2.5808-3.0527 1.7402-1.0913 3.967-1.0913 0.8406 0 1.5337 0.16222 0.70788 0.14747 1.342 0.48666l0.67838 0.38343v-6.3561h4.1882zm-3.967-7.9488q0-1.401-0.26545-2.3891-0.25071-0.98807-0.81111-1.637-1.0028-1.1503-2.4481-1.1503-1.4157 0-2.3596 1.0913-0.51615 0.58989-0.76686 1.5632-0.23596 0.95858-0.23596 2.3006 0 1.283 0.25071 2.2416 0.26545 0.94383 0.82585 1.5632 1.0323 1.165 2.4186 1.165 1.3273 0 2.3596-1.1356 1.0323-1.1356 1.0323-3.6131zm23.006 2.1974q-0.54566 1.8287-1.224 2.9052-0.67837 1.0618-1.7107 1.7992-0.97333 0.67838-2.2121 1.0323-1.224 0.35394-2.743 0.35394-1.9024 0-3.3919-0.54566-1.4895-0.54565-2.6103-1.6517t-1.6812-2.5955q-0.54565-1.5042-0.54565-3.4656 0-3.9523 2.2416-6.2086 2.2563-2.2711 5.84-2.2711 3.4951 0 5.6925 2.2121 2.2121 2.2121 2.2121 6.1202l-0.059 1.401h-11.562q0.23595 1.5485 1.165 2.4481 1.106 1.0766 2.7135 1.0766 1.2093 0 2.0351-0.5899 0.44242-0.30969 0.79636-0.85534 0.35393-0.5604 0.78161-1.6517zm-4.6012-4.4095q-0.22121-1.0323-0.72262-1.5927-1.0323-1.165-2.684-1.165-0.78161 0-1.401 0.22121-0.60464 0.22121-1.1356 0.72262-0.78161 0.69312-1.0323 1.8139zm22.519 10.161h-4.0113v-0.73737q-1.519 1.0766-3.6131 1.0766-2.0941 0-3.8786-1.1208-1.7107-1.0323-2.6988-3.0232-0.92908-1.9024-0.92908-4.3652 0-2.4186 0.8406-4.3652 0.85534-1.9614 2.5808-3.0527 1.7402-1.0913 3.967-1.0913 0.8406 0 1.5337 0.16222 0.70788 0.14747 1.342 0.48666l0.67838 0.38343v-6.3561h4.1882zm-3.967-7.9488q0-1.401-0.26545-2.3891-0.25071-0.98807-0.81111-1.637-1.0028-1.1503-2.4481-1.1503-1.4157 0-2.3596 1.0913-0.51615 0.58989-0.76686 1.5632-0.23596 0.95858-0.23596 2.3006 0 1.283 0.25071 2.2416 0.26545 0.94383 0.82585 1.5632 1.0323 1.165 2.4186 1.165 1.3273 0 2.3596-1.1356 1.0323-1.1356 1.0323-3.6131zm32.562-10.161h-11.724v4.8814h10.146v3.8933h-10.146v9.3203h-4.4095v-21.988h16.134zm7.4915 0.47192h-4.203v-4.3652h4.203zm0 17.623h-4.203v-16.34h4.203zm13.155-15.19-1.46 3.6574q-0.89959-0.48666-1.4305-0.66363-0.53091-0.19172-0.92908-0.19172-0.61939 0-1.1061 0.35394-0.48666 0.33919-0.70787 0.98807-0.39818 1.1503-0.39818 2.6693v8.3765h-4.203v-16.06h3.9376v0.64888l0.45717-0.35393q0.94383-0.61939 2.1531-0.61939 0.79636 0 1.637 0.26545 0.85535 0.26545 2.0499 0.92908zm24.864 15.19h-4.1882v-9.925q0-1.342-0.23596-1.9024-0.14748-0.39818-0.61939-0.67838-0.23596-0.14747-0.53091-0.22121-0.29494-0.0737-0.64888-0.0737-1.342 0-2.1826 0.82585-0.44242 0.41293-0.64888 1.106-0.20647 0.69313-0.20647 1.6517v9.2171h-4.203v-10.22q0-0.75212-0.11798-1.224-0.10323-0.47191-0.38343-0.82585-0.42767-0.5309-1.5042-0.5309-0.88484 0-1.6664 0.44242-0.70787 0.39818-1.0766 1.2978-0.35393 0.89959-0.35393 2.7578v8.3028h-4.203v-16.06h3.9228v0.91434l0.79635-0.50141q1.401-0.73737 3.1707-0.73737 1.0323 0 1.8139 0.19171 0.79636 0.17697 1.46 0.57515 0.79636 0.50141 1.283 1.1798 1.9024-1.9466 4.7044-1.9466 2.6545 0 4.144 1.4158 0.72262 0.70787 1.0913 1.7549 0.38344 1.0323 0.38344 2.4481zm13.803-8.9516-2.5366 8.9516h-3.9228l-5.2796-16.03h4.3947l2.6398 8.9369 0.14747 0.48666 0.0885-0.33919 2.6398-9.0844h3.9375l2.4923 8.9959 0.0885 0.29494 0.10323-0.35393 2.8462-8.9369h4.203l-5.3828 16.03h-3.908zm30.409 8.9811h-4.5422q-0.22121-0.41292-0.36868-0.73736-0.13273-0.33919-0.19172-0.51616-0.98807 0.64888-2.0794 1.0471-1.5485 0.51616-3.1854 0.51616-2.861 0-4.4979-1.3715-1.6222-1.3715-1.6222-3.5394 0-1.2683 0.60464-2.2858 0.60464-1.0323 1.6075-1.6812 0.89959-0.5899 2.1531-0.92909 0.8406-0.19171 2.4628-0.38343 2.6103-0.26545 4.0703-0.66363l0.0148-0.22121q0-1.0618-0.50141-1.519-0.41293-0.33919-1.0323-0.48666-0.61939-0.14748-1.4747-0.14748-0.8111 0-1.3862 0.11798-0.5604 0.10323-0.92908 0.35394-0.36869 0.23596-0.63414 0.78161-0.2507 0.5309-0.5309 1.5927l-4.0998-0.51615q0.29495-1.401 0.61939-2.1679 0.32444-0.78161 0.82585-1.401 0.94383-1.106 2.6988-1.7107 1.6664-0.54565 3.8196-0.54565 2.1974 0 3.5246 0.48666 0.69312 0.23596 1.224 0.57515 0.54565 0.32444 0.94383 0.73737 0.67838 0.79635 0.98807 1.9909 0.16222 0.69313 0.16222 2.4481v3.3034q0 3.4804 0.13273 4.262 0.10323 0.44242 0.30969 0.89959 0.26546 0.57515 0.91434 1.7107zm-5.5892-7.0492q-0.54565 0.19172-3.4656 0.61939-1.4747 0.19172-2.1089 0.44242-0.42768 0.17697-0.72263 0.54566-0.23595 0.30969-0.23595 0.79635 0 0.64889 0.54565 1.1208 0.5604 0.45717 1.8434 0.45717 1.3125 0 2.3596-0.5309 0.50141-0.26546 0.8406-0.60464 0.35393-0.35394 0.58989-0.81111 0.35394-0.70787 0.35394-2.1679zm17.579-8.17-1.46 3.6574q-0.89959-0.48666-1.4305-0.66363-0.53091-0.19172-0.92909-0.19172-0.61939 0-1.106 0.35394-0.48666 0.33919-0.70787 0.98807-0.39818 1.1503-0.39818 2.6693v8.3765h-4.203v-16.06h3.9375v0.64888l0.45717-0.35393q0.94383-0.61939 2.1531-0.61939 0.79636 0 1.637 0.26545 0.85535 0.26545 2.0499 0.92908zm18.213 9.4531q-0.54565 1.8287-1.224 2.9052-0.67838 1.0618-1.7107 1.7992-0.97332 0.67838-2.2121 1.0323-1.224 0.35394-2.743 0.35394-1.9024 0-3.3919-0.54566-1.4895-0.54565-2.6103-1.6517t-1.6812-2.5955q-0.54565-1.5042-0.54565-3.4656 0-3.9523 2.2416-6.2086 2.2564-2.2711 5.84-2.2711 3.4951 0 5.6925 2.2121 2.2121 2.2121 2.2121 6.1202l-0.059 1.401h-11.562q0.23596 1.5485 1.165 2.4481 1.1061 1.0766 2.7135 1.0766 1.2093 0 2.0351-0.5899 0.44243-0.30969 0.79636-0.85534 0.35394-0.5604 0.78161-1.6517zm-4.6012-4.4095q-0.22121-1.0323-0.72262-1.5927-1.0323-1.165-2.684-1.165-0.78161 0-1.401 0.22121-0.60464 0.22121-1.1355 0.72262-0.78162 0.69312-1.0323 1.8139zm34.98-5.1763q0 1.4305-0.50141 2.6693-0.50141 1.224-1.4747 2.2416-0.97333 1.0176-2.684 1.5485-1.7107 0.51616-4.2178 0.51616h-4.7634v8.347h-4.4095v-21.988h8.9222q1.165 0 1.9761 0.0442 0.82586 0.0442 1.4452 0.16222 1.7549 0.2802 2.979 1.0766t1.9762 2.2416q0.36868 0.73737 0.5604 1.5042 0.19171 0.76686 0.19171 1.637zm-4.4979 0.0737q0-1.0323-0.54565-1.7549-0.54566-0.73737-1.3125-0.91434-0.75211-0.19171-2.5366-0.19171l-4.7486 0.0147v5.8694h4.8076q2.4186 0 3.3772-0.78161 0.95858-0.79635 0.95858-2.2416zm11.989 15.249h-4.203v-21.988h4.203zm19.407 0.0295h-4.5422q-0.22121-0.41292-0.36868-0.73736-0.13273-0.33919-0.19172-0.51616-0.98807 0.64888-2.0794 1.0471-1.5485 0.51616-3.1854 0.51616-2.861 0-4.4979-1.3715-1.6222-1.3715-1.6222-3.5394 0-1.2683 0.60464-2.2858 0.60464-1.0323 1.6075-1.6812 0.89959-0.5899 2.1531-0.92909 0.8406-0.19171 2.4628-0.38343 2.6103-0.26545 4.0703-0.66363l0.0148-0.22121q0-1.0618-0.50141-1.519-0.41293-0.33919-1.0323-0.48666-0.61939-0.14748-1.4747-0.14748-0.81111 0-1.3863 0.11798-0.5604 0.10323-0.92908 0.35394-0.36869 0.23596-0.63414 0.78161-0.2507 0.5309-0.5309 1.5927l-4.0998-0.51615q0.29495-1.401 0.61939-2.1679 0.32444-0.78161 0.82585-1.401 0.94383-1.106 2.6988-1.7107 1.6664-0.54565 3.8196-0.54565 2.1974 0 3.5246 0.48666 0.69312 0.23596 1.224 0.57515 0.54565 0.32444 0.94383 0.73737 0.67838 0.79635 0.98807 1.9909 0.16222 0.69313 0.16222 2.4481v3.3034q0 3.4804 0.13273 4.262 0.10323 0.44242 0.30969 0.89959 0.26546 0.57515 0.91434 1.7107zm-5.5892-7.0492q-0.54565 0.19172-3.4656 0.61939-1.4747 0.19172-2.1089 0.44242-0.42768 0.17697-0.72262 0.54566-0.23596 0.30969-0.23596 0.79635 0 0.64889 0.54565 1.1208 0.5604 0.45717 1.8434 0.45717 1.3125 0 2.3596-0.5309 0.50141-0.26546 0.8406-0.60464 0.35394-0.35394 0.58989-0.81111 0.35394-0.70787 0.35394-2.1679z"/><path d="m685.61 193.25q-1.1798 0.20646-1.7697 0.2802-0.58989 0.0737-1.1208 0.0737-1.6517 0-2.625-0.50141-1.0176-0.5604-1.46-1.4747-0.16222-0.36869-0.26545-1.1798-0.10323-0.82585-0.10323-2.0204v-7.6539h-1.9466v-3.3624h1.9466v-3.3034l4.1882-2.3448v5.6482h2.6693v3.3624h-2.6693v7.8014q0 0.33919 0 0.64889 0.0148 0.29495 0.059 0.41292 0.059 0.10324 0.16222 0.16223 0.22121 0.0737 0.53091 0.0737 0.44242 0 0.78161-0.0442 0.58989-0.11798 1.0176-0.17697z"/><path d="m697.19 171.46-0.66363 3.5984q-0.87009-0.11798-1.3568-0.16222-0.48667-0.059-0.85535-0.059-0.45717 0-0.72262 0.059-0.25071 0.0442-0.42768 0.22121-0.16222 0.16222-0.22121 0.48666-0.059 0.3097-0.059 0.82586l0.0148 0.64888h3.0527v3.4214h-3.0527v12.919h-4.1882v-12.919h-2.3448v-3.4214h2.3448v-0.85535q0-1.6664 0.30969-2.4923 0.44243-1.1503 1.6075-1.9024 1.1798-0.76686 3.1854-0.76686 0.66363 0 1.3125 0.0737 0.64889 0.0737 2.0646 0.32444z"/><path d="m713.68 185.19q0 2.979-1.0176 4.7929-1.0176 1.8139-2.9347 2.802-1.9172 0.98808-4.1588 0.98808-3.5984 0-5.8842-2.1974-1.1061-1.0913-1.6665-2.6103-0.5604-1.5337-0.5604-3.5689 0-4.3947 2.684-6.5626 1.1208-0.89959 2.4628-1.342 1.3568-0.45717 2.9642-0.45717 3.5541 0 5.84 2.1974 1.106 1.0766 1.6812 2.5808 0.58989 1.4895 0.58989 3.3772zm-4.2767 0.11798q0-1.224-0.2802-2.1089-0.26545-0.88485-0.85535-1.519-1.0913-1.1503-2.6988-1.1503-1.637 0-2.7283 1.1356-0.5604 0.60464-0.8406 1.5337-0.26545 0.91433-0.26545 2.1974t0.2507 2.1974q0.26546 0.91434 0.85535 1.5337 1.0766 1.165 2.7283 1.165 1.6075 0 2.7135-1.1945 1.1208-1.1945 1.1208-3.7901zm17.431-7.0787-1.46 3.6574q-0.89959-0.48666-1.4305-0.66363-0.53091-0.19172-0.92909-0.19172-0.61939 0-1.106 0.35394-0.48666 0.33919-0.70787 0.98807-0.39818 1.1503-0.39818 2.6693v8.3765h-4.203v-16.06h3.9376v0.64888l0.45717-0.35393q0.94383-0.61939 2.1531-0.61939 0.79636 0 1.637 0.26545 0.85534 0.26545 2.0499 0.92908zm24.864 15.19h-4.1882v-9.925q0-1.342-0.23595-1.9024-0.14748-0.39818-0.61939-0.67838-0.23596-0.14747-0.53091-0.22121-0.29495-0.0737-0.64888-0.0737-1.342 0-2.1826 0.82585-0.44242 0.41293-0.64889 1.106-0.20646 0.69313-0.20646 1.6517v9.2171h-4.203v-10.22q0-0.75212-0.11798-1.224-0.10323-0.47191-0.38343-0.82585-0.42767-0.5309-1.5042-0.5309-0.88484 0-1.6664 0.44242-0.70788 0.39818-1.0766 1.2978-0.35394 0.89959-0.35394 2.7578v8.3028h-4.203v-16.06h3.9228v0.91434l0.79636-0.50141q1.401-0.73737 3.1707-0.73737 1.0323 0 1.8139 0.19171 0.79636 0.17697 1.46 0.57515 0.79636 0.50141 1.283 1.1798 1.9024-1.9466 4.7044-1.9466 2.6545 0 4.144 1.4158 0.72262 0.70787 1.0913 1.7549 0.38343 1.0323 0.38343 2.4481z"/></g><g transform="scale(1.0148 .98539)" fill="#000d41" stroke="#fff" stroke-width="1.9851" aria-label="coreboot"><path d="m245.35 132.24q-1.3211 7.9264-3.8431 12.79-2.522 4.8039-6.6654 8.1065-4.0833 3.2426-8.9472 4.924-4.8639 1.6213-10.749 1.6213-14.412 0-23.299-8.8872-8.8271-8.9472-8.8271-24.98 0-10.388 3.723-18.315 3.783-7.9264 11.589-11.95 7.8663-4.0232 16.874-4.0232 11.469 0 18.975 5.5244 3.8431 2.8823 6.245 7.2058 2.462 4.2634 4.0232 11.469l-16.633 2.3419q-1.1409-4.3835-2.2818-6.6053-1.0809-2.2218-2.7622-3.4828-2.8823-2.2818-7.1458-2.2818-6.6654 0-10.929 4.5637-4.2634 4.5036-4.2634 15.252 0 5.4644 0.96077 9.3075 1.0208 3.8431 3.2426 6.245 3.9632 4.4436 10.388 4.4436 5.1642 0 8.5269-2.9424 1.8014-1.5613 2.8823-4.3235 1.1409-2.7622 1.9816-8.0465zm74.28-7.506q0 12.13-4.1433 19.516-4.1433 7.386-11.95 11.409-7.8063 4.0232-16.934 4.0232-14.652 0-23.959-8.9472-4.5036-4.4436-6.7855-10.629-2.2818-6.245-2.2818-14.532 0-17.894 10.929-26.722 4.5637-3.6629 10.028-5.4644 5.5244-1.8615 12.07-1.8615 14.472 0 23.779 8.9472 4.5036 4.3835 6.8455 10.508 2.4019 6.0649 2.4019 13.751zm-17.414 0.48039q0-4.984-1.1409-8.5869-1.0809-3.6029-3.4828-6.185-4.4436-4.6838-10.989-4.6838-6.6654 0-11.109 4.6237-2.2818 2.462-3.4228 6.245-1.0809 3.723-1.0809 8.9472 0 5.2242 1.0208 8.9472 1.0809 3.723 3.4828 6.245 4.3835 4.7438 11.109 4.7438 6.5453 0 11.049-4.8639 4.5637-4.8639 4.5637-15.432z"/><path d="m370.01 96.389-5.9448 14.892q-3.663-1.9816-5.8247-2.7022-2.1617-0.78063-3.783-0.78063-2.522 0-4.5036 1.4412-1.9816 1.3811-2.8823 4.0232-1.6213 4.6838-1.6213 10.869v34.107h-17.114v-65.393h16.033v2.6421l1.8615-1.4412q3.8431-2.522 8.7671-2.522 3.2426 0 6.6654 1.0809 3.4828 1.0809 8.3467 3.783z"/><path d="m436.27 134.88q-2.2218 7.446-4.984 11.83-2.7622 4.3235-6.9656 7.3259-3.9632 2.7622-9.0073 4.2034-4.984 1.4412-11.169 1.4412-7.7462 0-13.811-2.2218-6.0649-2.2218-10.629-6.7254-4.5637-4.5036-6.8455-10.568-2.2218-6.1249-2.2218-14.111 0-16.093 9.1274-25.28 9.1874-9.2474 23.779-9.2474 14.231 0 23.179 9.0072 9.0072 9.0072 9.0072 24.92l-0.24019 5.7046h-47.078q0.96077 6.3051 4.7438 9.968 4.5036 4.3835 11.049 4.3835 4.924 0 8.2867-2.4019 1.8014-1.261 3.2426-3.4828 1.4412-2.2818 3.1826-6.7254zm-18.735-17.954q-0.90072-4.2034-2.9424-6.4852-4.2034-4.7438-10.929-4.7438-3.1826 0-5.7046 0.90073-2.462 0.90072-4.6237 2.9424-3.1826 2.8223-4.2034 7.386z"/><g fill="#f50"><path d="m506.97 124.01q0 16.753-8.9472 26.241-8.9472 9.4276-21.738 9.4276-8.3467 0-14.532-4.4436v3.0625h-16.333v-89.592h17.114v25.821q6.1249-4.1433 14.292-4.1433 3.6029 0 6.4252 0.60048 2.8823 0.54044 5.9448 1.9215 5.8247 2.4019 9.8479 7.1458 1.8014 2.1017 3.2426 4.8039 1.4412 2.6421 2.6421 5.9448 2.0416 6.3051 2.0416 13.211zm-17.294 0.96078q0-5.5244-1.0208-9.3075-0.96078-3.783-3.3027-6.3651-3.9031-4.5036-9.4876-4.5036-5.6445 0-9.7879 4.8039-2.2818 2.522-3.3627 6.3051-1.0809 3.723-1.0809 8.647 0 5.0441 0.60048 8.5269 0.66053 3.4828 2.0416 5.5845 2.1017 3.3027 4.8039 4.984 2.7022 1.6213 6.3051 1.6213 5.5244 0 9.7879-4.8039 2.2818-2.522 3.3627-6.3651 1.1409-3.8431 1.1409-9.1274zm91.114-0.2402q0 12.13-4.1433 19.516-4.1433 7.386-11.95 11.409-7.8063 4.0232-16.934 4.0232-14.652 0-23.959-8.9472-4.5036-4.4436-6.7855-10.629-2.2818-6.245-2.2818-14.532 0-17.894 10.929-26.722 4.5637-3.6629 10.028-5.4644 5.5244-1.8615 12.07-1.8615 14.472 0 23.779 8.9472 4.5036 4.3835 6.8455 10.508 2.4019 6.0649 2.4019 13.751zm-17.414 0.48039q0-4.984-1.1409-8.5869-1.0809-3.6029-3.4828-6.185-4.4436-4.6838-10.989-4.6838-6.6654 0-11.109 4.6237-2.2818 2.462-3.4228 6.245-1.0809 3.723-1.0809 8.9472 0 5.2242 1.0208 8.9472 1.0809 3.723 3.4828 6.245 4.3835 4.7438 11.109 4.7438 6.5453 0 11.049-4.8639 4.5637-4.8639 4.5637-15.432z"/><path d="m654.55 124.73q0 12.13-4.1433 19.516-4.1433 7.386-11.95 11.409-7.8063 4.0232-16.934 4.0232-14.652 0-23.959-8.9472-4.5036-4.4436-6.7855-10.629-2.2818-6.245-2.2818-14.532 0-17.894 10.929-26.722 4.5637-3.6629 10.028-5.4644 5.5244-1.8615 12.07-1.8615 14.472 0 23.779 8.9472 4.5036 4.3835 6.8455 10.508 2.4019 6.0649 2.4019 13.751zm-17.414 0.48039q0-4.984-1.1409-8.5869-1.0809-3.6029-3.4828-6.185-4.4436-4.6838-10.989-4.6838-6.6654 0-11.109 4.6237-2.2818 2.462-3.4228 6.245-1.0809 3.723-1.0809 8.9472 0 5.2242 1.0208 8.9472 1.0809 3.723 3.4828 6.245 4.3835 4.7438 11.109 4.7438 6.5453 0 11.049-4.8639 4.5637-4.8639 4.5637-15.432z"/><path d="m698.09 157.58q-4.8039 0.84067-7.2058 1.1409-2.4019 0.30025-4.5637 0.30025-6.7254 0-10.689-2.0416-4.1433-2.2818-5.9448-6.0048-0.66053-1.5012-1.0809-4.8039-0.42034-3.3627-0.42034-8.2266v-31.165h-7.9264v-13.691h7.9264v-13.451l17.054-9.5477v22.999h10.869v13.691h-10.869v31.766q0 1.3811 0 2.6421 0.0601 1.201 0.24019 1.6814 0.2402 0.42034 0.66053 0.66053 0.90073 0.30025 2.1617 0.30025 1.8014 0 3.1826-0.18015 2.4019-0.48039 4.1433-0.72058z"/></g></g></g></svg>
