<svg width="772" height="232" version="1.1" viewBox="0 0 772 232" xmlns="http://www.w3.org/2000/svg"><g><rect transform="translate(-1.9271)" x="1.9271" width="772" height="232" fill="#fefeff" style="paint-order:fill markers stroke"/><g transform="translate(-1.9271)"><rect x="13.25" y="16.25" width="46" height="46" fill="#d8dbe2" style="paint-order:markers stroke fill"/><rect x="13.25" y="68.35" width="46" height="46" fill="#7e87a1" style="paint-order:markers stroke fill"/><rect x="13.25" y="120.45" width="46" height="46" fill="#404d73" style="paint-order:markers stroke fill"/><rect x="13.25" y="172.55" width="46" height="46" fill="#011244" style="paint-order:markers stroke fill"/><rect x="65.35" y="68.35" width="46" height="46" fill="#bec3d0" style="paint-order:markers stroke fill"/><rect x="65.35" y="120.45" width="46" height="46" fill="#7e87a1" style="paint-order:markers stroke fill"/><rect x="65.35" y="172.55" width="46" height="46" fill="#404d73" style="paint-order:markers stroke fill"/><rect x="117.45" y="120.45" width="46" height="46" fill="#bec3d0" style="paint-order:markers stroke fill"/><rect x="117.45" y="172.55" width="46" height="46" fill="#7e87a1" style="paint-order:markers stroke fill"/><rect x="169.55" y="172.55" width="46" height="46" fill="#bec3d0" style="paint-order:markers stroke fill"/><rect x="221.65" y="172.55" width="46" height="46" fill="#d8dbe2" style="paint-order:markers stroke fill"/><rect x="273.75" y="172.55" width="46" height="46" fill="#f2f3f5" style="paint-order:markers stroke fill"/></g><g transform="scale(.9383 1.0658)" fill="#000d41" stroke-linejoin="round" stroke-width="4.255" aria-label="Open Platform Firmware Development "><path d="m262.91 182.43q0 1.6665-0.35394 3.1412-0.35394 1.46-1.0618 2.802-1.4158 2.6398-4.0703 4.026-2.6398 1.3862-5.6335 1.3862-3.2887 0-5.8547-1.4895-2.5513-1.5042-3.9376-4.1588-1.3125-2.5365-1.3125-5.4565 0-2.6988 0.78161-4.8224 0.78161-2.1384 2.3153-3.6868 3.0822-3.1264 8.0226-3.1264 1.6222 0 3.0527 0.35394 1.4305 0.35393 2.7283 1.106 2.5513 1.4157 3.967 4.085 0.66363 1.2683 1.0028 2.7578 0.35394 1.4895 0.35394 3.0822zm-4.498 0q0-1.1945-0.20646-2.1826-0.20647-0.98807-0.63414-1.9024-0.76686-1.637-2.3153-2.5513-1.5337-0.92908-3.4361-0.92908-2.743 0-4.6897 1.7697t-1.9466 6.0907q0 3.4214 1.8729 5.3386 1.8877 1.9172 4.7192 1.9172 2.8757 0 4.7486-1.9319 1.8877-1.9319 1.8877-5.6188zm22.932 2.979q0 2.4923-0.95858 4.4684-0.94383 1.9614-2.802 3.0674-1.8434 1.1061-3.8491 1.1061-1.5337 0-2.7578-0.63414-0.13273-0.059-0.29495-0.14747-0.059-0.0295-0.2802-0.16223v6.3119h-4.203v-22.047h3.967v0.79636q0.35394-0.26546 0.76687-0.47192 1.1945-0.66363 2.979-0.66363 2.2711 0 3.9818 1.0913 1.7107 1.0913 2.6103 3.097 0.39818 0.94383 0.61939 2.0056t0.22121 2.1826zm-4.262 0q0-1.2978-0.26545-2.2268-0.25071-0.92909-0.81111-1.5632-0.97333-1.1503-2.3448-1.1503-1.3125 0-2.3891 1.2388-1.1208 1.3125-1.1208 3.908 0 1.2978 0.23595 2.2416 0.25071 0.92909 0.79636 1.5337 0.98808 1.1208 2.3891 1.1208t2.4038-1.165q0.5604-0.61939 0.82585-1.5927 0.2802-0.98807 0.2802-2.3448zm23.301 2.2711q-0.54565 1.8287-1.224 2.9052-0.67838 1.0618-1.7107 1.7992-0.97332 0.67838-2.2121 1.0323-1.224 0.35394-2.743 0.35394-1.9024 0-3.3919-0.54566-1.4895-0.54565-2.6103-1.6517t-1.6812-2.5955q-0.54565-1.5042-0.54565-3.4656 0-3.9523 2.2416-6.2086 2.2564-2.2711 5.84-2.2711 3.4951 0 5.6925 2.2121 2.2121 2.2121 2.2121 6.1202l-0.059 1.401h-11.562q0.23596 1.5485 1.165 2.4481 1.106 1.0766 2.7135 1.0766 1.2093 0 2.0351-0.5899 0.44242-0.30969 0.79636-0.85534 0.35394-0.5604 0.78161-1.6517zm-4.6012-4.4095q-0.22121-1.0323-0.72262-1.5927-1.0323-1.165-2.684-1.165-0.78161 0-1.401 0.22121-0.60464 0.22121-1.1356 0.72262-0.78161 0.69312-1.0323 1.8139zm21.664 10.146h-4.203v-9.6153q0-1.3125-0.26545-2.0056-0.10323-0.25071-0.30969-0.44242-0.19172-0.20647-0.48667-0.38344-0.60464-0.35393-1.4305-0.35393-1.4158 0-2.4333 0.82585-0.48667 0.39818-0.72263 1.224-0.22121 0.82585-0.22121 2.0499v8.701h-4.203v-16.06h3.9375v0.94383q1.7254-1.2683 4.203-1.2683 0.89959 0 1.5632 0.11798 0.66363 0.10323 1.342 0.39818 1.401 0.54565 2.1089 1.5042 0.66364 0.88484 0.94383 2.0941 0.16223 0.73737 0.16223 2.5513zm30.512-15.323q0 1.4305-0.50141 2.6693-0.50141 1.224-1.4747 2.2416-0.97333 1.0176-2.684 1.5485-1.7107 0.51616-4.2178 0.51616h-4.7634v8.347h-4.4095v-21.988h8.9222q1.165 0 1.9761 0.0442 0.82586 0.0442 1.4452 0.16222 1.7549 0.2802 2.979 1.0766t1.9762 2.2416q0.36868 0.73737 0.5604 1.5042 0.19171 0.76686 0.19171 1.637zm-4.4979 0.0737q0-1.0323-0.54565-1.7549-0.54566-0.73737-1.3125-0.91434-0.75211-0.19171-2.5366-0.19171l-4.7486 0.0147v5.8694h4.8076q2.4186 0 3.3772-0.78161 0.95858-0.79635 0.95858-2.2416zm11.989 15.249h-4.203v-21.988h4.203zm19.407 0.0295h-4.5422q-0.22121-0.41292-0.36868-0.73736-0.13273-0.33919-0.19172-0.51616-0.98807 0.64888-2.0794 1.0471-1.5485 0.51616-3.1854 0.51616-2.861 0-4.4979-1.3715-1.6222-1.3715-1.6222-3.5394 0-1.2683 0.60464-2.2858 0.60464-1.0323 1.6075-1.6812 0.89959-0.5899 2.1531-0.92909 0.8406-0.19171 2.4628-0.38343 2.6103-0.26545 4.0703-0.66363l0.0147-0.22121q0-1.0618-0.50141-1.519-0.41293-0.33919-1.0323-0.48666-0.61939-0.14748-1.4747-0.14748-0.81111 0-1.3863 0.11798-0.5604 0.10323-0.92908 0.35394-0.36868 0.23596-0.63414 0.78161-0.2507 0.5309-0.5309 1.5927l-4.0998-0.51615q0.29495-1.401 0.61939-2.1679 0.32444-0.78161 0.82585-1.401 0.94383-1.106 2.6988-1.7107 1.6664-0.54565 3.8196-0.54565 2.1974 0 3.5246 0.48666 0.69312 0.23596 1.224 0.57515 0.54565 0.32444 0.94383 0.73737 0.67838 0.79635 0.98807 1.9909 0.16222 0.69313 0.16222 2.4481v3.3034q0 3.4804 0.13273 4.262 0.10323 0.44242 0.30969 0.89959 0.26546 0.57515 0.91434 1.7107zm-5.5892-7.0492q-0.54565 0.19172-3.4656 0.61939-1.4747 0.19172-2.1089 0.44242-0.42768 0.17697-0.72262 0.54566-0.23596 0.30969-0.23596 0.79635 0 0.64889 0.54565 1.1208 0.5604 0.45717 1.8434 0.45717 1.3125 0 2.3596-0.5309 0.50141-0.26546 0.8406-0.60464 0.35394-0.35394 0.58989-0.81111 0.35394-0.70787 0.35394-2.1679z"/><path d="m385.9 193.25q-1.1798 0.20646-1.7697 0.2802-0.58989 0.0737-1.1208 0.0737-1.6517 0-2.625-0.50141-1.0176-0.5604-1.46-1.4747-0.16223-0.36869-0.26546-1.1798-0.10323-0.82585-0.10323-2.0204v-7.6539h-1.9466v-3.3624h1.9466v-3.3034l4.1882-2.3448v5.6482h2.6693v3.3624h-2.6693v7.8014q0 0.33919 0 0.64889 0.0147 0.29495 0.059 0.41292 0.059 0.10324 0.16222 0.16223 0.22121 0.0737 0.53091 0.0737 0.44242 0 0.78161-0.0442 0.58989-0.11798 1.0176-0.17697z"/><path d="m397.48 171.46-0.66363 3.5984q-0.87009-0.11798-1.3568-0.16222-0.48667-0.059-0.85535-0.059-0.45717 0-0.72262 0.059-0.25071 0.0442-0.42768 0.22121-0.16222 0.16222-0.22121 0.48666-0.059 0.3097-0.059 0.82586l0.0147 0.64888h3.0527v3.4214h-3.0527v12.919h-4.1882v-12.919h-2.3448v-3.4214h2.3448v-0.85535q0-1.6664 0.30969-2.4923 0.44243-1.1503 1.6075-1.9024 1.1798-0.76686 3.1854-0.76686 0.66363 0 1.3125 0.0737 0.64889 0.0737 2.0646 0.32444z"/><path d="m413.97 185.19q0 2.979-1.0176 4.7929-1.0176 1.8139-2.9347 2.802-1.9172 0.98808-4.1588 0.98808-3.5984 0-5.8842-2.1974-1.1061-1.0913-1.6665-2.6103-0.5604-1.5337-0.5604-3.5689 0-4.3947 2.684-6.5626 1.1208-0.89959 2.4628-1.342 1.3568-0.45717 2.9642-0.45717 3.5541 0 5.84 2.1974 1.106 1.0766 1.6812 2.5808 0.58989 1.4895 0.58989 3.3772zm-4.2767 0.11798q0-1.224-0.2802-2.1089-0.26545-0.88485-0.85535-1.519-1.0913-1.1503-2.6988-1.1503-1.637 0-2.7283 1.1356-0.5604 0.60464-0.8406 1.5337-0.26545 0.91433-0.26545 2.1974t0.2507 2.1974q0.26546 0.91434 0.85535 1.5337 1.0766 1.165 2.7283 1.165 1.6075 0 2.7135-1.1945 1.1208-1.1945 1.1208-3.7901zm17.431-7.0787-1.46 3.6574q-0.89959-0.48666-1.4305-0.66363-0.5309-0.19172-0.92908-0.19172-0.61939 0-1.106 0.35394-0.48667 0.33919-0.70788 0.98807-0.39818 1.1503-0.39818 2.6693v8.3765h-4.203v-16.06h3.9375v0.64888l0.45717-0.35393q0.94383-0.61939 2.1531-0.61939 0.79635 0 1.637 0.26545 0.85535 0.26545 2.0499 0.92908zm24.864 15.19h-4.1882v-9.925q0-1.342-0.23596-1.9024-0.14747-0.39818-0.61939-0.67838-0.23596-0.14747-0.5309-0.22121-0.29495-0.0737-0.64889-0.0737-1.342 0-2.1826 0.82585-0.44242 0.41293-0.64888 1.106-0.20646 0.69313-0.20646 1.6517v9.2171h-4.203v-10.22q0-0.75212-0.11798-1.224-0.10323-0.47191-0.38343-0.82585-0.42768-0.5309-1.5042-0.5309-0.88485 0-1.6665 0.44242-0.70787 0.39818-1.0766 1.2978-0.35394 0.89959-0.35394 2.7578v8.3028h-4.203v-16.06h3.9228v0.91434l0.79636-0.50141q1.401-0.73737 3.1707-0.73737 1.0323 0 1.8139 0.19171 0.79635 0.17697 1.46 0.57515 0.79636 0.50141 1.283 1.1798 1.9024-1.9466 4.7044-1.9466 2.6545 0 4.144 1.4158 0.72262 0.70787 1.0913 1.7549 0.38343 1.0323 0.38343 2.4481zm28.595-18.095h-11.724v4.8814h10.146v3.8933h-10.146v9.3203h-4.4095v-21.988h16.134zm7.4915 0.47192h-4.203v-4.3652h4.203zm0 17.623h-4.203v-16.34h4.203zm13.155-15.19-1.46 3.6574q-0.89959-0.48666-1.4305-0.66363-0.5309-0.19172-0.92908-0.19172-0.61939 0-1.106 0.35394-0.48667 0.33919-0.70788 0.98807-0.39818 1.1503-0.39818 2.6693v8.3765h-4.203v-16.06h3.9376v0.64888l0.45717-0.35393q0.94383-0.61939 2.1531-0.61939 0.79636 0 1.637 0.26545 0.85535 0.26545 2.0499 0.92908zm24.864 15.19h-4.1882v-9.925q0-1.342-0.23596-1.9024-0.14747-0.39818-0.61939-0.67838-0.23596-0.14747-0.5309-0.22121-0.29495-0.0737-0.64889-0.0737-1.342 0-2.1826 0.82585-0.44242 0.41293-0.64888 1.106-0.20647 0.69313-0.20647 1.6517v9.2171h-4.203v-10.22q0-0.75212-0.11798-1.224-0.10323-0.47191-0.38343-0.82585-0.42768-0.5309-1.5042-0.5309-0.88484 0-1.6664 0.44242-0.70787 0.39818-1.0766 1.2978-0.35393 0.89959-0.35393 2.7578v8.3028h-4.203v-16.06h3.9228v0.91434l0.79636-0.50141q1.401-0.73737 3.1707-0.73737 1.0323 0 1.8139 0.19171 0.79636 0.17697 1.46 0.57515 0.79636 0.50141 1.283 1.1798 1.9024-1.9466 4.7044-1.9466 2.6545 0 4.144 1.4158 0.72262 0.70787 1.0913 1.7549 0.38343 1.0323 0.38343 2.4481zm13.803-8.9516-2.5365 8.9516h-3.9228l-5.2796-16.03h4.3947l2.6398 8.9369 0.14748 0.48666 0.0885-0.33919 2.6398-9.0844h3.9376l2.4923 8.9959 0.0885 0.29494 0.10324-0.35393 2.8462-8.9369h4.203l-5.3828 16.03h-3.908zm30.409 8.9811h-4.5422q-0.22121-0.41292-0.36868-0.73736-0.13273-0.33919-0.19172-0.51616-0.98807 0.64888-2.0794 1.0471-1.5485 0.51616-3.1854 0.51616-2.861 0-4.498-1.3715-1.6222-1.3715-1.6222-3.5394 0-1.2683 0.60464-2.2858 0.60464-1.0323 1.6075-1.6812 0.89959-0.5899 2.1531-0.92909 0.8406-0.19171 2.4628-0.38343 2.6103-0.26545 4.0703-0.66363l0.0148-0.22121q0-1.0618-0.50141-1.519-0.41293-0.33919-1.0323-0.48666-0.61939-0.14748-1.4747-0.14748-0.81111 0-1.3863 0.11798-0.5604 0.10323-0.92908 0.35394-0.36868 0.23596-0.63414 0.78161-0.2507 0.5309-0.5309 1.5927l-4.0998-0.51615q0.29495-1.401 0.61939-2.1679 0.32444-0.78161 0.82585-1.401 0.94383-1.106 2.6988-1.7107 1.6664-0.54565 3.8196-0.54565 2.1974 0 3.5246 0.48666 0.69312 0.23596 1.224 0.57515 0.54565 0.32444 0.94383 0.73737 0.67838 0.79635 0.98807 1.9909 0.16222 0.69313 0.16222 2.4481v3.3034q0 3.4804 0.13273 4.262 0.10323 0.44242 0.3097 0.89959 0.26545 0.57515 0.91433 1.7107zm-5.5892-7.0492q-0.54565 0.19172-3.4656 0.61939-1.4747 0.19172-2.1089 0.44242-0.42768 0.17697-0.72262 0.54566-0.23596 0.30969-0.23596 0.79635 0 0.64889 0.54565 1.1208 0.5604 0.45717 1.8434 0.45717 1.3125 0 2.3596-0.5309 0.50141-0.26546 0.8406-0.60464 0.35394-0.35394 0.58989-0.81111 0.35394-0.70787 0.35394-2.1679zm17.579-8.17-1.46 3.6574q-0.89959-0.48666-1.4305-0.66363-0.53091-0.19172-0.92909-0.19172-0.61939 0-1.106 0.35394-0.48666 0.33919-0.70787 0.98807-0.39818 1.1503-0.39818 2.6693v8.3765h-4.203v-16.06h3.9376v0.64888l0.45716-0.35393q0.94384-0.61939 2.1531-0.61939 0.79636 0 1.637 0.26545 0.85534 0.26545 2.0499 0.92908zm18.213 9.4531q-0.54565 1.8287-1.224 2.9052-0.67838 1.0618-1.7107 1.7992-0.97333 0.67838-2.2121 1.0323-1.224 0.35394-2.743 0.35394-1.9024 0-3.3919-0.54566-1.4895-0.54565-2.6103-1.6517t-1.6812-2.5955q-0.54566-1.5042-0.54566-3.4656 0-3.9523 2.2416-6.2086 2.2564-2.2711 5.84-2.2711 3.4951 0 5.6925 2.2121 2.2121 2.2121 2.2121 6.1202l-0.059 1.401h-11.562q0.23596 1.5485 1.165 2.4481 1.106 1.0766 2.7135 1.0766 1.2093 0 2.0351-0.5899 0.44242-0.30969 0.79635-0.85534 0.35394-0.5604 0.78161-1.6517zm-4.6012-4.4095q-0.22121-1.0323-0.72263-1.5927-1.0323-1.165-2.684-1.165-0.78161 0-1.401 0.22121-0.60464 0.22121-1.1355 0.72262-0.78161 0.69312-1.0323 1.8139z"/><path d="m632.26 182.28q0 1.1945-0.16222 2.3153-0.16222 1.106-0.45717 2.0646-0.58989 1.9172-1.578 3.2002-0.97332 1.283-2.1531 2.0499-1.1798 0.75211-2.7872 1.1208-1.6075 0.36868-3.7163 0.36868l-8.5682 0.0147v-21.988h8.2143q1.401 0 2.3153 0.0737 0.92908 0.0737 1.7107 0.23595 2.0499 0.42768 3.4951 1.6075 1.8582 1.5042 2.7725 3.8343 0.44243 1.1356 0.67838 2.4186 0.23596 1.2683 0.23596 2.684zm-4.4979-0.0147q0-2.9937-0.98808-4.5274-0.98807-1.5485-2.3596-2.0499-1.0028-0.36869-3.4066-0.36869h-3.7606v14.202h3.8343q1.0766 0 1.7844-0.0737 0.72262-0.0885 1.3273-0.2802 1.0471-0.3097 1.637-0.8701 0.8701-0.82585 1.401-2.3153 0.53091-1.5042 0.53091-3.7163zm22.72 5.4123q-0.54565 1.8287-1.224 2.9052-0.67838 1.0618-1.7107 1.7992-0.97332 0.67838-2.2121 1.0323-1.224 0.35394-2.743 0.35394-1.9024 0-3.3919-0.54566-1.4895-0.54565-2.6103-1.6517t-1.6812-2.5955q-0.54565-1.5042-0.54565-3.4656 0-3.9523 2.2416-6.2086 2.2564-2.2711 5.84-2.2711 3.4951 0 5.6925 2.2121 2.2121 2.2121 2.2121 6.1202l-0.059 1.401h-11.562q0.23596 1.5485 1.165 2.4481 1.106 1.0766 2.7135 1.0766 1.2093 0 2.0351-0.5899 0.44242-0.30969 0.79636-0.85534 0.35394-0.5604 0.78161-1.6517zm-4.6012-4.4095q-0.22121-1.0323-0.72262-1.5927-1.0323-1.165-2.684-1.165-0.78161 0-1.401 0.22121-0.60464 0.22121-1.1356 0.72262-0.78161 0.69312-1.0323 1.8139zm22.381-5.8842-6.5036 16.03h-3.5394l-6.5478-16.03h4.4832l3.5394 9.2024 0.2802 0.78161 0.23595-0.61939 3.6574-9.3646z"/><path d="m685.95 187.68q-0.54566 1.8287-1.224 2.9052-0.67838 1.0618-1.7107 1.7992-0.97332 0.67838-2.2121 1.0323-1.224 0.35394-2.743 0.35394-1.9024 0-3.3919-0.54566-1.4895-0.54565-2.6103-1.6517t-1.6812-2.5955q-0.54565-1.5042-0.54565-3.4656 0-3.9523 2.2416-6.2086 2.2563-2.2711 5.84-2.2711 3.4951 0 5.6925 2.2121 2.2121 2.2121 2.2121 6.1202l-0.059 1.401h-11.562q0.23596 1.5485 1.165 2.4481 1.106 1.0766 2.7135 1.0766 1.2093 0 2.0351-0.5899 0.44242-0.30969 0.79636-0.85534 0.35394-0.5604 0.78161-1.6517zm-4.6012-4.4095q-0.22121-1.0323-0.72262-1.5927-1.0323-1.165-2.684-1.165-0.78161 0-1.401 0.22121-0.60464 0.22121-1.1356 0.72262-0.78161 0.69312-1.0323 1.8139zm11.591 10.146h-4.203v-21.988h4.203zm19.142-8.229q0 2.979-1.0176 4.7929-1.0176 1.8139-2.9347 2.802-1.9172 0.98808-4.1588 0.98808-3.5984 0-5.8842-2.1974-1.106-1.0913-1.6664-2.6103-0.5604-1.5337-0.5604-3.5689 0-4.3947 2.684-6.5626 1.1208-0.89959 2.4628-1.342 1.3568-0.45717 2.9642-0.45717 3.5541 0 5.84 2.1974 1.1061 1.0766 1.6812 2.5808 0.5899 1.4895 0.5899 3.3772zm-4.2767 0.11798q0-1.224-0.2802-2.1089-0.26545-0.88485-0.85534-1.519-1.0913-1.1503-2.6988-1.1503-1.637 0-2.7283 1.1356-0.5604 0.60464-0.8406 1.5337-0.26546 0.91433-0.26546 2.1974t0.25071 2.1974q0.26545 0.91434 0.85535 1.5337 1.0766 1.165 2.7283 1.165 1.6075 0 2.7135-1.1945 1.1208-1.1945 1.1208-3.7901zm22.342 0.10323q0 2.4923-0.95858 4.4684-0.94383 1.9614-2.802 3.0674-1.8434 1.1061-3.8491 1.1061-1.5337 0-2.7578-0.63414-0.13273-0.059-0.29495-0.14747-0.059-0.0295-0.2802-0.16223v6.3119h-4.203v-22.047h3.967v0.79636q0.35393-0.26546 0.76686-0.47192 1.1945-0.66363 2.979-0.66363 2.2711 0 3.9818 1.0913 1.7107 1.0913 2.6103 3.097 0.39818 0.94383 0.61939 2.0056t0.22121 2.1826zm-4.262 0q0-1.2978-0.26545-2.2268-0.25071-0.92909-0.81111-1.5632-0.97332-1.1503-2.3448-1.1503-1.3125 0-2.3891 1.2388-1.1208 1.3125-1.1208 3.908 0 1.2978 0.23596 2.2416 0.2507 0.92909 0.79635 1.5337 0.98808 1.1208 2.3891 1.1208t2.4038-1.165q0.5604-0.61939 0.82585-1.5927 0.2802-0.98807 0.2802-2.3448zm29.952 8.0078h-4.1882v-9.925q0-1.342-0.23596-1.9024-0.14747-0.39818-0.61938-0.67838-0.23596-0.14747-0.53091-0.22121-0.29495-0.0737-0.64888-0.0737-1.342 0-2.1826 0.82585-0.44242 0.41293-0.64889 1.106-0.20646 0.69313-0.20646 1.6517v9.2171h-4.203v-10.22q0-0.75212-0.11798-1.224-0.10323-0.47191-0.38343-0.82585-0.42767-0.5309-1.5042-0.5309-0.88484 0-1.6664 0.44242-0.70788 0.39818-1.0766 1.2978-0.35394 0.89959-0.35394 2.7578v8.3028h-4.203v-16.06h3.9228v0.91434l0.79636-0.50141q1.401-0.73737 3.1707-0.73737 1.0323 0 1.8139 0.19171 0.79636 0.17697 1.46 0.57515 0.79636 0.50141 1.283 1.1798 1.9024-1.9466 4.7044-1.9466 2.6545 0 4.144 1.4158 0.72262 0.70787 1.0913 1.7549 0.38343 1.0323 0.38343 2.4481zm19.039-5.7367q-0.54565 1.8287-1.224 2.9052-0.67838 1.0618-1.7107 1.7992-0.97333 0.67838-2.2121 1.0323-1.224 0.35394-2.743 0.35394-1.9024 0-3.3919-0.54566-1.4895-0.54565-2.6103-1.6517t-1.6812-2.5955q-0.54566-1.5042-0.54566-3.4656 0-3.9523 2.2416-6.2086 2.2564-2.2711 5.84-2.2711 3.4951 0 5.6925 2.2121 2.2121 2.2121 2.2121 6.1202l-0.059 1.401h-11.562q0.23596 1.5485 1.165 2.4481 1.1061 1.0766 2.7135 1.0766 1.2093 0 2.0351-0.5899 0.44242-0.30969 0.79635-0.85534 0.35394-0.5604 0.78161-1.6517zm-4.6012-4.4095q-0.22121-1.0323-0.72262-1.5927-1.0323-1.165-2.684-1.165-0.78161 0-1.401 0.22121-0.60464 0.22121-1.1355 0.72262-0.78161 0.69312-1.0323 1.8139zm21.664 10.146h-4.203v-9.6153q0-1.3125-0.26545-2.0056-0.10324-0.25071-0.3097-0.44242-0.19172-0.20647-0.48666-0.38344-0.60464-0.35393-1.4305-0.35393-1.4157 0-2.4333 0.82585-0.48666 0.39818-0.72262 1.224-0.22121 0.82585-0.22121 2.0499v8.701h-4.203v-16.06h3.9375v0.94383q1.7254-1.2683 4.203-1.2683 0.89959 0 1.5632 0.11798 0.66364 0.10323 1.342 0.39818 1.401 0.54565 2.1089 1.5042 0.66363 0.88484 0.94383 2.0941 0.16222 0.73737 0.16222 2.5513zm12.211-0.16222q-1.1798 0.20646-1.7697 0.2802-0.5899 0.0737-1.1208 0.0737-1.6517 0-2.625-0.50141-1.0176-0.5604-1.46-1.4747-0.16222-0.36869-0.26546-1.1798-0.10323-0.82585-0.10323-2.0204v-7.6539h-1.9466v-3.3624h1.9466v-3.3034l4.1882-2.3448v5.6482h2.6693v3.3624h-2.6693v7.8014q0 0.33919 0 0.64889 0.0147 0.29495 0.059 0.41292 0.059 0.10324 0.16222 0.16223 0.22122 0.0737 0.53091 0.0737 0.44242 0 0.78161-0.0442 0.58989-0.11798 1.0176-0.17697z"/></g><g transform="scale(1.0462 .95584)" fill="#000d41" stroke="#fff" stroke-width="1.8923" aria-label="TianoCore"><path d="m222.46 93.057h-27.762v70.235h-17.115v-70.235h-27.648v-15.112h72.525z"/><path d="m243.42 94.889h-16.314v-16.943h16.314zm0 68.403h-16.314v-63.423h16.314z"/><path d="m315.71 163.41h-17.63q-0.85861-1.6028-1.431-2.8621-0.51517-1.3166-0.74413-2.0034-3.8352 2.5186-8.071 4.0641-6.0103 2.0034-12.364 2.0034-11.105 0-17.459-5.3234-6.2965-5.3234-6.2965-13.738 0-4.9227 2.3469-8.8724 2.3469-4.0069 6.2393-6.5255 3.4917-2.2896 8.3572-3.6062 3.2628-0.74414 9.5593-1.4883 10.132-1.0304 15.799-2.5759l0.0572-0.85862q0-4.1214-1.9462-5.8958-1.6028-1.3166-4.0069-1.889t-5.7241-0.57241q-3.1483 0-5.3807 0.45793-2.1752 0.40068-3.6062 1.3738-1.431 0.91586-2.4614 3.0338-0.9731 2.0607-2.0607 6.182l-15.913-2.0034q1.1448-5.4379 2.4041-8.4145 1.2593-3.0338 3.2055-5.4379 3.6634-4.2931 10.475-6.64 6.4683-2.1179 14.825-2.1179 8.5289 0 13.681 1.889 2.6903 0.91586 4.751 2.2324 2.1179 1.2593 3.6634 2.8621 2.6331 3.091 3.8352 7.7276 0.62966 2.6903 0.62966 9.502v12.822q0 13.509 0.51517 16.543 0.40069 1.7172 1.2021 3.4917 1.0303 2.2324 3.549 6.64zm-21.694-27.361q-2.1179 0.74413-13.452 2.4041-5.7241 0.74414-8.1855 1.7172-1.66 0.68689-2.8048 2.1179-0.91586 1.2021-0.91586 3.091 0 2.5186 2.1179 4.3503 2.1752 1.7745 7.1552 1.7745 5.0945 0 9.1586-2.0607 1.9462-1.0303 3.2628-2.3469 1.3738-1.3738 2.2896-3.1483 1.3738-2.7476 1.3738-8.4145z"/><path d="m379.43 163.29h-16.314v-37.321q0-5.0945-1.0303-7.7848-0.40069-0.9731-1.2021-1.7172-0.74414-0.80137-1.889-1.4883-2.3469-1.3738-5.5524-1.3738-5.4952 0-9.4448 3.2055-1.889 1.5455-2.8048 4.751-0.85862 3.2055-0.85862 7.9565v33.772h-16.314v-62.336h15.283v3.6634q6.6972-4.9227 16.314-4.9227 3.4917 0 6.0676 0.45793 2.5759 0.40069 5.209 1.5455 5.4379 2.1179 8.1855 5.8386 2.5758 3.4345 3.6634 8.1283 0.62966 2.8621 0.62966 9.9027z"/><path d="m452.79 131.35q0 11.563-3.9496 18.603t-11.391 10.876-16.142 3.8352q-13.967 0-22.839-8.5289-4.2931-4.2358-6.4682-10.132-2.1752-5.9531-2.1752-13.852 0-17.058 10.418-25.472 4.3503-3.4917 9.5593-5.209 5.2662-1.7745 11.505-1.7745 13.795 0 22.668 8.5289 4.2931 4.1786 6.5255 10.017 2.2896 5.7814 2.2896 13.108zm-16.6 0.45793q0-4.751-1.0876-8.1855-1.0303-3.4345-3.32-5.8958-4.2358-4.4648-10.475-4.4648-6.3538 0-10.59 4.4076-2.1752 2.3469-3.2628 5.9531-1.0303 3.549-1.0303 8.5289 0 4.98 0.9731 8.5289 1.0303 3.549 3.32 5.9531 4.1786 4.5221 10.59 4.5221 6.2393 0 10.532-4.6365 4.3503-4.6365 4.3503-14.711z"/><g fill="#f50"><path d="m543.16 133.13q-2.4614 8.9296-5.9531 14.597-3.4345 5.6669-8.5289 9.5593-9.96 7.4414-24.041 7.4414-7.3269 0-13.165-1.431-5.8386-1.431-10.59-4.2931-9.1014-5.6669-14.081-16.543-4.5793-10.475-4.5793-22.439 0-13.165 5.3234-23.125t15.341-15.169q10.074-5.209 21.923-5.209 13.566 0 22.954 6.64 4.751 3.3772 8.071 8.4145 3.3772 4.98 5.9531 13.051l-16.714 3.7207q-2.0034-5.6669-3.8924-8.7007-1.889-3.091-4.4648-4.98-4.751-3.3772-12.135-3.3772-8.7007 0-14.425 3.8352-5.6669 3.7779-8.071 10.532-2.4041 6.7545-2.4041 14.31 0 4.8083 0.68689 8.9296 0.6869 4.1214 2.1752 7.7848 2.7476 6.64 8.4717 9.96 5.7814 3.32 12.708 3.32 8.2427 0 13.852-4.522 2.9193-2.2324 4.9227-6.0676 2.0034-3.8924 3.6062-10.475z"/><path d="m612.19 131.35q0 11.563-3.9496 18.603t-11.391 10.876-16.142 3.8352q-13.967 0-22.839-8.5289-4.2931-4.2358-6.4682-10.132-2.1752-5.9531-2.1752-13.852 0-17.058 10.418-25.472 4.3503-3.4917 9.5593-5.209 5.2662-1.7745 11.505-1.7745 13.795 0 22.668 8.5289 4.2931 4.1786 6.5255 10.017 2.2896 5.7814 2.2896 13.108zm-16.6 0.45793q0-4.751-1.0876-8.1855-1.0303-3.4345-3.32-5.8958-4.2358-4.4648-10.475-4.4648-6.3538 0-10.59 4.4076-2.1752 2.3469-3.2628 5.9531-1.0303 3.549-1.0303 8.5289 0 4.98 0.9731 8.5289 1.0303 3.549 3.32 5.9531 4.1786 4.5221 10.59 4.5221 6.2393 0 10.532-4.6365 4.3503-4.6365 4.3503-14.711z"/><path d="m660.21 104.33-5.6669 14.196q-3.4917-1.889-5.5524-2.5759-2.0607-0.74413-3.6062-0.74413-2.4041 0-4.2931 1.3738-1.889 1.3165-2.7476 3.8352-1.5455 4.4648-1.5455 10.361v32.513h-16.314v-62.336h15.283v2.5186l1.7745-1.3738q3.6634-2.4041 8.3572-2.4041 3.091 0 6.3538 1.0303 3.32 1.0303 7.9565 3.6062z"/><path d="m723.37 141.03q-2.1179 7.0979-4.751 11.277-2.6331 4.1214-6.64 6.9834-3.7779 2.6331-8.5862 4.0069-4.751 1.3738-10.647 1.3738-7.3841 0-13.165-2.1179t-10.132-6.411q-4.3503-4.2931-6.5255-10.074-2.1179-5.8386-2.1179-13.452 0-15.341 8.7007-24.099 8.7579-8.8152 22.668-8.8152 13.566 0 22.095 8.5862 8.5862 8.5862 8.5862 23.755l-0.22897 5.4379h-44.877q0.91586 6.0103 4.5221 9.502 4.2931 4.1786 10.532 4.1786 4.6938 0 7.8993-2.2896 1.7172-1.2021 3.091-3.32 1.3738-2.1752 3.0338-6.411zm-17.859-17.115q-0.85862-4.0069-2.8048-6.182-4.0069-4.5221-10.418-4.5221-3.0338 0-5.4379 0.85862-2.3469 0.85862-4.4076 2.8048-3.0338 2.6903-4.0069 7.0407z"/></g></g></g></svg>